<?xml version="1.0" encoding="UTF-8" standalone="no"?>
<!DOCTYPE svg PUBLIC "-//W3C//DTD SVG 1.1//EN" "http://www.w3.org/Graphics/SVG/1.1/DTD/svg11.dtd">
<svg width="100%" height="100%" viewBox="0 0 1704 1704" version="1.1" xmlns="http://www.w3.org/2000/svg" xmlns:xlink="http://www.w3.org/1999/xlink" xml:space="preserve" xmlns:serif="http://www.serif.com/" style="fill-rule:evenodd;clip-rule:evenodd;stroke-linejoin:round;stroke-miterlimit:2;">
    <g transform="matrix(1,0,0,1,-343.663905,-517.230225)">
        <g>
            <g transform="matrix(1,0,0,1,449.403257,-1597.608631)">
                <path d="M745.929,2114.839L1136.714,2505.624L745.929,2896.41L355.143,2505.624L745.929,2114.839Z" style="fill:rgb(105,177,49);"/>
            </g>
            <g transform="matrix(1,0,0,1,449.403257,-675.843139)">
                <path d="M745.929,2114.839L1136.714,2505.624L745.929,2896.41L355.143,2505.624L745.929,2114.839Z" style="fill:rgb(0,174,191);"/>
            </g>
            <g transform="matrix(1,0,0,1,910.286003,-1142.47273)">
                <path d="M745.929,2114.839L1136.714,2505.624L745.929,2896.41L355.143,2505.624L745.929,2114.839Z" style="fill:rgb(197,210,17);"/>
            </g>
            <g transform="matrix(1,0,0,1,-11.479489,-1142.47273)">
                <path d="M745.929,2114.839L1136.714,2505.624L745.929,2896.41L355.143,2505.624L745.929,2114.839Z" style="fill:rgb(233,42,135);"/>
            </g>
        </g>
    </g>
</svg>
